<?xml version="1.0" encoding="utf-8"?>
<!-- Generator: Adobe Illustrator 25.2.3, SVG Export Plug-In . SVG Version: 6.00 Build 0)  -->
<svg version="1.1" xmlns="http://www.w3.org/2000/svg" xmlns:xlink="http://www.w3.org/1999/xlink" x="0px" y="0px"
	 viewBox="0 0 225 225" style="enable-background:new 0 0 225 225;" xml:space="preserve">
<style type="text/css">
	.st0{fill:#F8F9FA;}
	.st1{fill:#212529;}
	.st2{fill:none;}
	.st3{fill:#FFFFFF;}
</style>
<g id="Layer_2">
	<rect class="st0" width="225" height="225"/>
</g>
<g id="Layer_1">
	<g>
		<path class="st1" d="M97.82,73.77c0.25-2.31,0.47-4.71,0.63-7.19c0.24-3.71,0.33-7.25,0.32-10.6c0.01-0.96,0-2.24-0.07-3.75
			c0,0-0.17-3.77-0.73-7.3c-1.14-7.18-2.07-13.44-6.64-18.03c-2.72-2.73-6.3-4.63-10.8-5.71c-14.46-3.48-29.1-3.41-43.57-0.07
			c-9.92,2.29-16.21,8.77-16.93,19.1c-0.78,11.1-1.06,22.28-0.69,33.39c0.35,10.68,5.16,19.22,16.17,22.08
			c15.39,4,31.03,3.93,46.42-0.04c4.07-1.05,7.43-2.99,9.97-5.71c3.5-3.75,4.61-8.89,5.15-11.14C97.51,76.75,97.72,75,97.82,73.77z
			 M98.38,169.21c0.03-2.91,0.05-5.82,0.08-8.74c-0.06-1.06-0.14-2.66-0.23-4.6c-0.19-4.29-0.24-7.04-0.27-7.84
			c-0.08-2.31-0.32-10.69-5.41-16.62c-3.26-3.79-8.12-6.23-14.99-7.73c-12.5-2.72-25.19-2.7-37.69-0.07
			c-13.8,2.9-18.79,8.11-20.16,22.2c-1,10.23-1.13,20.67-0.35,30.92c1.13,14.79,7.49,21.81,22.46,23.33
			c11.97,1.22,24.29,0.93,36.27-0.36c5.18-0.56,9.53-2.45,12.79-5.54c4.27-4.03,5.49-9.67,6.44-13.71
			C98.41,175.81,98.49,171.85,98.38,169.21z M201.53,61.79c0.12-3.62,0.19-5.43,0.13-7.98c-0.05-2.34-0.14-6.16-0.74-10.07
			c-0.86-5.61-1.74-11.98-6.13-16.55c-2.58-2.69-6.02-4.58-10.41-5.73c-14.91-3.91-30.05-3.74-45-0.14
			c-9.33,2.25-15.52,8.61-16.15,18.13c-0.85,12.73-0.8,25.58-0.1,38.33c0.47,8.4,5.57,14.84,13.82,17.27
			c16.47,4.85,33.18,4.86,49.67-0.03c7.44-2.21,12.07-7.84,13.36-15.42c0.19-1.1,0.41-2.44,0.71-5.15
			C200.81,73.34,201.28,69.03,201.53,61.79z M201.72,171c-0.01-0.79-0.06-7.25-0.07-8.04c0-0.2-0.03-3.81-0.03-4.02
			c-0.02-0.8-0.05-1.97-0.11-3.38c-0.17-4.12-0.45-7.27-0.51-7.82c-0.42-4.43-1.01-11.3-5.38-16.38c-3.22-3.74-8.01-6.15-14.77-7.62
			c-12.66-2.76-25.51-2.73-38.18-0.05c-13.39,2.84-18.6,8.37-19.81,21.96c-0.9,10.08-1.13,20.32-0.5,30.42
			c0.95,15.04,7.38,22.42,22.37,23.97c11.97,1.24,24.28,0.94,36.28-0.27c4.89-0.49,8.86-2.09,11.94-4.66
			c5.26-4.38,6.76-11.42,7.69-15.42C201.47,176.14,201.69,173.11,201.72,171z M225,225H0V0h225V225z"/>
		<path class="st2" d="M97.7,72.91c-0.02,1.47-0.16,3.51-0.68,5.89c-0.46,2.09-1.5,7.23-5.15,11.14c-2.53,2.71-5.89,4.66-9.97,5.71
			c-15.39,3.97-31.03,4.04-46.42,0.04c-11.01-2.86-15.82-11.4-16.17-22.08c-0.37-11.12-0.08-22.3,0.69-33.39
			c0.72-10.32,7.01-16.8,16.93-19.1c14.47-3.34,29.12-3.41,43.57,0.07c4.5,1.08,8.08,2.98,10.8,5.71
			c5.09,5.12,5.93,12.16,6.64,18.03c0.13,1.07,0.29,2.71,0.31,8.25C98.29,57.98,98.2,64.71,97.7,72.91z"/>
		<path class="st2" d="M98.3,159.89c0.13,2.9,0.13,5.38,0.09,7.32c-0.09,3.95-0.39,7.04-0.6,9.11c-0.18,1.79-0.3,3.07-0.47,4.13
			c-0.13,0.85-1.29,8.84-6.44,13.71c-3.27,3.09-7.61,4.98-12.79,5.54c-11.98,1.29-24.3,1.58-36.27,0.36
			c-14.97-1.52-21.33-8.54-22.46-23.33c-0.78-10.25-0.65-20.69,0.35-30.92c1.37-14.09,6.37-19.31,20.16-22.2
			c12.49-2.62,25.19-2.64,37.69,0.07c6.17,1.34,11.17,3.09,14.99,7.73c0,0,4.5,5.46,5.16,13.58c0.02,0.28,0.17,2.25,0.3,4.83
			c0.02,0.37,0.07,1.48,0.13,3.03C98.21,154.64,98.27,157.03,98.3,159.89z"/>
		<path class="st2" d="M201.53,70.87c-0.14,2.12-0.52,5.18-1.55,8.72c-1.06,3.64-2.15,7.61-5.37,10.79c-2.12,2.1-4.8,3.68-8,4.63
			c-16.49,4.89-33.2,4.88-49.67,0.03c-8.25-2.43-13.35-8.87-13.82-17.27c-0.71-12.74-0.75-25.6,0.1-38.33
			c0.64-9.53,6.82-15.89,16.15-18.13c14.95-3.6,30.09-3.77,45,0.14c4.39,1.15,7.82,3.04,10.41,5.73c4.17,4.34,5.11,10.65,6.13,16.55
			c0.55,3.18,0.75,6.04,0.84,7.48c0.22,3.26,0.18,5.66,0.11,9.96C201.83,63.62,201.74,66.93,201.53,70.87z"/>
		<path class="st2" d="M201.66,162.23c0,1.53-0.04,3.42-0.25,7.11c-0.33,5.84-0.49,8.76-0.76,10.33
			c-0.35,2.09-1.65,10.39-7.69,15.42c-3.08,2.56-7.05,4.17-11.94,4.66c-12,1.21-24.31,1.51-36.28,0.27
			c-14.99-1.55-21.42-8.93-22.37-23.97c-0.63-10.09-0.4-20.33,0.5-30.41c1.21-13.59,6.42-19.12,19.81-21.96
			c12.67-2.69,25.52-2.72,38.18,0.05c6.76,1.48,11.55,3.88,14.77,7.62c4.37,5.09,4.95,11.97,5.38,16.38
			c0.22,2.26,0.44,6.98,0.46,7.44C201.58,157.52,201.67,159.57,201.66,162.23z"/>
		<path d="M209.28,55.55"/>
		<path class="st3" d="M107.06,28.83"/>
		<path d="M207.6,160.85"/>
		<path class="st1" d="M85.77,68.47c-0.02,1.01-0.11,2.41-0.47,4.04c-0.32,1.44-1.03,4.97-3.54,7.65c-1.74,1.86-4.05,3.2-6.85,3.92
			c-10.57,2.73-21.32,2.77-31.89,0.03c-7.56-1.96-10.87-7.83-11.11-15.17C31.67,61.31,31.87,53.62,32.4,46
			c0.5-7.09,4.81-11.54,11.63-13.12c9.94-2.3,20-2.34,29.93,0.05c3.09,0.74,5.55,2.05,7.42,3.92c3.5,3.51,4.08,8.35,4.56,12.39
			c0.09,0.74,0.2,1.86,0.21,5.67C86.17,58.21,86.11,62.83,85.77,68.47z"/>
		<path class="st1" d="M188.74,68.49c-0.02,1.01-0.11,2.41-0.47,4.04c-0.32,1.44-1.03,4.97-3.54,7.65c-1.74,1.86-4.05,3.2-6.85,3.92
			c-10.57,2.73-21.32,2.77-31.89,0.03c-7.56-1.96-10.87-7.83-11.11-15.17c-0.25-7.64-0.06-15.32,0.48-22.94
			c0.5-7.09,4.81-11.54,11.63-13.12c9.94-2.3,20-2.34,29.93,0.05c3.09,0.74,5.55,2.05,7.42,3.92c3.5,3.51,4.08,8.35,4.56,12.39
			c0.09,0.74,0.2,1.86,0.21,5.67C189.14,58.23,189.08,62.85,188.74,68.49z"/>
		<path class="st1" d="M85.74,171.49c-0.02,1.01-0.11,2.41-0.47,4.04c-0.32,1.44-1.03,4.97-3.54,7.65c-1.74,1.86-4.05,3.2-6.85,3.92
			c-10.57,2.73-21.32,2.77-31.89,0.03c-7.56-1.96-10.87-7.83-11.11-15.17c-0.25-7.64-0.06-15.32,0.48-22.94
			c0.5-7.09,4.81-11.54,11.63-13.12c9.94-2.3,20-2.34,29.93,0.05c3.09,0.74,5.55,2.05,7.42,3.92c3.5,3.51,4.08,8.35,4.56,12.39
			c0.09,0.74,0.2,1.86,0.21,5.67C86.14,161.23,86.08,165.85,85.74,171.49z"/>
		<path class="st1" d="M188.74,171.49c-0.02,1.01-0.11,2.41-0.47,4.04c-0.32,1.44-1.03,4.97-3.54,7.65
			c-1.74,1.86-4.05,3.2-6.85,3.92c-10.57,2.73-21.32,2.77-31.89,0.03c-7.56-1.96-10.87-7.83-11.11-15.17
			c-0.25-7.64-0.06-15.32,0.48-22.94c0.5-7.09,4.81-11.54,11.63-13.12c9.94-2.3,20-2.34,29.93,0.05c3.09,0.74,5.55,2.05,7.42,3.92
			c3.5,3.51,4.08,8.35,4.56,12.39c0.09,0.74,0.2,1.86,0.21,5.67C189.14,161.23,189.08,165.85,188.74,171.49z"/>
	</g>
</g>
</svg>
