<?xml version="1.0" encoding="utf-8"?>
<!-- Generator: Adobe Illustrator 25.2.3, SVG Export Plug-In . SVG Version: 6.00 Build 0)  -->
<svg version="1.1" id="Layer_1" xmlns="http://www.w3.org/2000/svg" xmlns:xlink="http://www.w3.org/1999/xlink" x="0px" y="0px"
	 viewBox="0 0 1028.4 267.1" style="enable-background:new 0 0 1028.4 267.1;" xml:space="preserve">
<style type="text/css">
	.st0{fill:#DC3545;}
	.st1{fill:#FFFFFF;}
</style>
<path class="st0" d="M892.4,267.1H137.9c-7,1.1-15.9,1.6-26.1,0.1c-49.3-7.3-109.6-60.1-109.5-133C2.4,61.1,63-5.2,137.9,0.5
	c251.5,0,503,0,754.5,0c71.2-6.7,131.1,55,134,126.8C1029.6,203.4,968,273.8,892.4,267.1z"/>
<path class="st1" d="M243.1,37.2c-53.5,0-96.9,43.5-96.9,97.3c0,53.7,43.4,97.3,96.8,97.3s96.8-43.6,96.8-97.3
	C339.9,80.7,296.6,37.2,243.1,37.2z M242.9,215.2c-44.6,0-80.8-36.3-80.8-80.8s36.3-80.8,80.8-80.8s80.9,36.3,80.9,80.9
	S287.5,215.2,242.9,215.2z"/>
<path class="st1" d="M242.9,122.2l-29.7-29.5c-0.5-0.5-2.6-2.1-5.7-2c-3.3,0.1-5.4,2.2-5.9,2.8s-2.2,2.3-2.6,5.1
	c-0.4,3.5,1.4,6.1,1.8,6.6c9.9,9.7,19.7,19.5,29.6,29.2l-30.7,30.9c-0.3,0.7-1.6,3.3-0.7,6.5c0.7,2.6,2.4,4.1,3.1,4.7
	c0.8,0.7,2.6,2.1,5.3,2.3c2.4,0.1,4.3-0.9,5-1.3c10.2-10,20.3-19.9,30.5-29.9l28.9,28.3c0.4,0.4,2.8,2.7,6.5,2.6
	c3-0.1,4.9-1.8,5.5-2.4c0.6-0.5,2.6-2.4,2.9-5.6c0.4-4.3-2.9-7.2-3.2-7.5l-27.9-28.3l29.8-29.5c2.4-3.4,2.2-8.1-0.5-11.3
	c-2.8-3.2-7.6-4-11.4-1.9C263.3,102.1,253.1,112.2,242.9,122.2z"/>
<g>
	<path class="st1" d="M400.7,100.1h24.9c19.6,0,32.8,13.3,32.8,34.1c0,20.6-12.9,35.5-33.1,35.5h-24.6V100.1L400.7,100.1z
		 M409.9,161.8h14.6c16.4,0,24.2-11.7,24.2-27.5c0-13.7-7.1-26.4-24.1-26.4H410L409.9,161.8L409.9,161.8z"/>
	<path class="st1" d="M516.4,137.1h-34.6v24.6h38l-1.2,7.9h-45.9v-69.5H518v7.9h-36.3v21.2h34.7V137.1z"/>
	<path class="st1" d="M587.6,149.9c-3.1,11.8-11.9,20.6-27.7,20.6c-20.8,0-31.3-15.8-31.3-35.5c0-18.9,10.5-36,31.6-36
		c16.4,0,25.3,9.4,27.4,21h-9.2c-2.5-7.6-7.5-13.3-18.5-13.3c-15.4,0-21.6,13.9-21.6,28c0,13.7,6,28,22,28c10.7,0,15.4-6.2,18-12.9
		L587.6,149.9L587.6,149.9z"/>
	<path class="st1" d="M601.1,100.1h9.2v61.7h36.3l-1.3,7.9h-44.2V100.1L601.1,100.1z"/>
	<path class="st1" d="M666.4,100.1v69.6h-9.2v-69.6H666.4z"/>
	<path class="st1" d="M684.7,169.7v-69.6h12.2c10,16.3,31.7,50.9,35.6,58.4h0.1c-0.7-8.9-0.6-19.9-0.6-31.3v-27.1h8.7v69.6h-11.5
		c-9.2-15.1-31.8-52.3-36.2-60.1h-0.1c0.5,7.9,0.5,19.7,0.5,32.3v27.9L684.7,169.7L684.7,169.7z"/>
	<path class="st1" d="M802.7,137.1h-34.6v24.6h38l-1.2,7.9H759v-69.5h45.4v7.9h-36.3v21.2h34.6V137.1z"/>
	<path class="st1" d="M818.8,100.1h24.9c19.6,0,32.8,13.3,32.8,34.1c0,20.6-12.9,35.5-33.1,35.5h-24.5L818.8,100.1L818.8,100.1z
		 M828,161.8h14.6c16.4,0,24.2-11.7,24.2-27.5c0-13.7-7.1-26.4-24.1-26.4h-14.6L828,161.8L828,161.8z"/>
</g>
</svg>
