<?xml version="1.0" encoding="utf-8"?>
<!-- Generator: Adobe Illustrator 25.2.3, SVG Export Plug-In . SVG Version: 6.00 Build 0)  -->
<svg version="1.1" id="Layer_1" xmlns="http://www.w3.org/2000/svg" xmlns:xlink="http://www.w3.org/1999/xlink" x="0px" y="0px"
	 viewBox="0 0 1029.4 266.6" style="enable-background:new 0 0 1029.4 266.6;" xml:space="preserve">
<style type="text/css">
	.st0{fill:#296D9B;}
	.st1{fill:none;stroke:#000000;stroke-miterlimit:10;}
	.st2{fill:#FFFFFF;}
</style>
<path class="st0" d="M893.1,266.6H138.6c-7,1.1-15.9,1.6-26.1,0.1C63.2,259.4,3,206.6,3,133.7C3.1,60.6,63.7-5.7,138.6,0
	c251.5,0,503,0,754.5,0c71.2-6.7,131.1,55,134,126.8C1030.2,202.9,968.7,273.3,893.1,266.6z"/>
<path class="st1" d="M785.8,384.8"/>
<path class="st1" d="M873.2,296.3"/>
<path class="st1" d="M855.6,207.8"/>
<g>
	<path class="st2" d="M287.5,75.1"/>
	<path class="st2" d="M300.8,67.7"/>
	<path class="st2" d="M290.8,211.6c2.6-2.5,3-6.4,1.2-9.3c-2-3.1-6.2-4.3-9.7-2.5l0.3-0.2c-4.3,3.4-9,6.3-13.9,8.7l0,0l0.3-0.1
		c-3.1,2.2-4.1,6.4-2.3,9.6c1.7,3,5.4,4.5,8.8,3.3l-0.3,0.2c5.7-2.8,11-6,16-9.8"/>
	<path class="st2" d="M317.6,206.6"/>
	<path class="st2" d="M299.7,181.5c2.9-4.2,5.5-8.8,7.6-13.5l0,0l-0.2,0.3c2.3-3.3,6.8-4.1,10-2.2c3,1.8,4.3,5.7,3.1,9.1l0.2-0.3
		c-2.4,5.3-5.3,10.4-8.7,15.1l0.2-0.3c-2.7,3-7.2,3.4-10.2,1c-2.8-2.2-3.6-6.3-1.8-9.5"/>
	<path class="st2" d="M328.7,127.2L328.7,127.2c-1-3.7-4.7-6-8.4-5.5c-3.5,0.5-6.1,3.4-6.5,6.9c0.2,2.2,0.3,4.5,0.3,6.7
		c0,2.2-0.1,4.2-0.3,6.3c0,0.2,0,0.3,0,0.3c-0.1,0.5-0.1,0.9-0.1,1.5c0-0.1,0-0.3,0-0.3l0,0v0.3c-0.1,4,3,7.3,7,7.6
		c3.9,0.3,7.4-2.7,7.9-6.6l0,0c0.3-3,0.4-6,0.4-9.1C329.1,132.6,328.9,129.9,328.7,127.2z"/>
	<path class="st2" d="M321.4,98L321.4,98c-2.4-5.6-5.3-11-8.7-16l0,0c-2.6-2.2-6.2-2.4-9.1-0.6c-2.8,1.7-4.2,5.2-3.4,8.5
		c3.3,4.7,6,9.9,8.1,15.4l-0.2-0.3l0,0l0.2,0.3c2.6,2.8,6.8,3.4,9.9,1.4C321.1,104.8,322.4,101.3,321.4,98z"/>
	<path class="st2" d="M272.6,64.3l-4.5,1c-3,1.8-4.5,5.4-3.6,8.8c0.9,3.5,4,6,7.6,6.1c8-2.5,16-5.1,24.1-7.6c0.6-0.3,3-1.4,4.3-4.1
		c1-2.3,0.8-4.5,0.6-5.2L292.5,41c-1.7-3.9-6.1-5.8-9.9-4.3c-3.5,1.3-5.5,5.1-4.7,8.9l2.2,6.4l0,0c-13.9-7.8-30-12.3-47.1-12.3
		c-53.1,0.1-96.2,42.9-96.2,95.6s43,95.5,96.2,95.5c4.7,0,9.3-0.3,13.9-0.9l0,0c3.5-1.3,5.5-4.8,4.9-8.3c-0.6-3.1-3.3-5.5-6.6-5.9
		l0,0c-4,0.6-8.1,0.9-12.3,0.9c-44.9,0-81.4-36.5-81.4-81.4S188,54,232.8,54C247.2,53.9,260.9,57.7,272.6,64.3"/>
	<path class="st2" d="M329.9,43.9"/>
	<path class="st2" d="M232.8,141.5V94.8c-0.9-3.2-3.8-5.4-7.2-5.4c-3.4,0-6.3,2.2-7.2,5.4v51.8c0,0.6,0.2,2.2,1.5,3.8
		c0.8,1,1.8,1.6,2.3,1.8l36.3,16.2c3.9,1.3,8-0.8,9.2-4.2c1-3-0.2-6.6-3.1-8.5L232.8,141.5z"/>
</g>
<g>
	<path class="st2" d="M392.9,97.4h27.8c14.3,0,24,8,24,21.3c0,14.3-10.3,21.9-24.7,21.9h-17.4v30.2h-9.8V97.4z M402.8,132.5h17
		c10.1,0,15.1-4.9,15.1-13.5c0-8.9-6.1-13.4-14.7-13.4h-17.4V132.5z"/>
	<path class="st2" d="M505.3,136.5h-36.5v26h40.1l-1.2,8.4h-48.4V97.4h47.8v8.4h-38.2v22.4h36.5L505.3,136.5L505.3,136.5z"/>
	<path class="st2" d="M522.3,170.8V97.4h12.9c10.5,17.2,33.4,53.6,37.6,61.7h0.2c-0.7-9.4-0.6-21-0.6-33V97.4h9.2v73.4h-12.1
		c-9.7-15.9-33.6-55.2-38.1-63.4h-0.2c0.5,8.4,0.6,20.8,0.6,34.1v29.4L522.3,170.8L522.3,170.8z"/>
	<path class="st2" d="M600.7,97.4h26.2c20.6,0,34.6,14,34.6,35.9c0,21.7-13.6,37.4-34.9,37.4h-25.9V97.4L600.7,97.4z M610.5,162.6
		h15.4c17.3,0,25.5-12.3,25.5-29c0-14.5-7.5-27.9-25.5-27.9h-15.4V162.6L610.5,162.6z"/>
	<path class="st2" d="M686.5,97.4v73.4h-9.7V97.4H686.5z"/>
	<path class="st2" d="M705.8,170.8V97.4h12.9c10.5,17.2,33.4,53.6,37.6,61.7h0.2c-0.7-9.4-0.6-21-0.6-33V97.4h9.2v73.4h-12.1
		c-9.7-15.9-33.6-55.2-38.1-63.4h-0.2c0.6,8.4,0.6,20.8,0.6,34.1v29.4L705.8,170.8L705.8,170.8z"/>
	<path class="st2" d="M843.7,170.8h-7.5c-0.5-1.4-0.8-4.7-0.9-10c-3.2,5.2-9.5,11-22.8,11c-21.2,0-32.4-16.1-32.4-36.9
		c0-22,12-38.5,34.2-38.5c17,0,27.7,9.2,29.9,22.4h-9.7c-2.5-8.2-8.4-14.3-20.4-14.3c-17,0-23.8,13.6-23.8,29.9
		c0,15.1,6.8,29.2,23.4,29.2c16.5,0,20.5-11,20.5-23.4v-0.7h-20.7v-8.4h30.2L843.7,170.8L843.7,170.8z"/>
</g>
</svg>
