<?xml version="1.0" encoding="utf-8"?>
<!-- Generator: Adobe Illustrator 25.2.3, SVG Export Plug-In . SVG Version: 6.00 Build 0)  -->
<svg version="1.1" id="Layer_1" xmlns="http://www.w3.org/2000/svg" xmlns:xlink="http://www.w3.org/1999/xlink" x="0px" y="0px"
	 viewBox="0 0 1034 267.1" style="enable-background:new 0 0 1034 267.1;" xml:space="preserve">
<style type="text/css">
	.st0{fill:#0D7400;}
	.st1{fill:#FFFFFF;}
</style>
<path class="st0" d="M895.4,267.1H140.9c-7,1.1-15.9,1.6-26.1,0.1c-49.3-7.3-109.6-60.1-109.5-133C5.4,61.1,66.1-5.2,140.9,0.5
	c251.5,0,503,0,754.5,0c71.2-6.7,131.1,55,134,126.8C1032.6,203.4,971.1,273.8,895.4,267.1z"/>
<path class="st1" d="M271.9,34.2c-53.5,0-96.9,43.5-96.9,97.3c0,53.7,43.4,97.3,96.9,97.3s96.8-43.6,96.8-97.3
	C368.8,77.8,325.4,34.2,271.9,34.2z M271.8,212.3c-44.6,0-80.8-36.3-80.8-80.9s36.3-80.8,80.8-80.8s80.9,36.3,80.9,80.9
	S316.4,212.3,271.8,212.3z"/>
<path class="st1" d="M233.7,124.9l20.1,19.9l48.9-48.7c0.7-0.4,2.2-1.2,4.1-1.3c0.4,0,4.5-0.2,7.2,3.1c0.7,0.8,1.8,2.4,2,4.8
	c0.2,2.3-0.6,4-0.9,4.7c-19.7,19.9-39.3,39.8-59,59.7c0,0-2.3,2.7-5.4,0l-30.2-30.7c-1.8-4.1-1.2-8.6,1.4-11.2
	c2.4-2.4,5.7-2.5,6-2.5C231.2,122.7,233.2,124.5,233.7,124.9z"/>
<g>
	<path class="st1" d="M448.5,170.3l-24.3-74.1h10.4l11.5,36.6c3.2,10,5.9,19,7.9,27.7h0.3c2.1-8.6,5.1-17.9,8.4-27.5l12.5-36.7h10.2
		L459,170.3L448.5,170.3L448.5,170.3z"/>
	<path class="st1" d="M531.9,135.5h-28.7v26.8h32.2v8h-41.8V96.1h40.1v8h-30.5v23.5h28.7L531.9,135.5L531.9,135.5z"/>
	<path class="st1" d="M547.6,97.2c4.9-1,11.8-1.6,18.4-1.6c10.2,0,16.9,1.9,21.5,6.1c3.7,3.2,5.8,8.3,5.8,14.1
		c0,9.7-6.2,16.2-14,18.9v0.3c5.6,2,9.1,7.3,10.9,15c2.4,10.4,4.2,17.4,5.7,20.4H586c-1.2-2.1-2.8-8.5-4.9-17.8
		c-2.2-10.2-6.2-14.1-14.9-14.4h-9.1v32.1h-9.6L547.6,97.2L547.6,97.2z M557.2,130.9h9.8c10.2,0,16.7-5.6,16.7-14.1
		c0-9.6-7-13.8-17-13.8c-4.6,0-7.8,0.4-9.5,0.8V130.9L557.2,130.9z"/>
	<path class="st1" d="M616.4,96.1v74.1h-9.6V96.1H616.4z"/>
	<path class="st1" d="M633.1,96.1H673v8h-30.3v24.7h28v7.9h-28v33.6h-9.6V96.1z"/>
	<path class="st1" d="M696.3,96.1v74.1h-9.6V96.1H696.3z"/>
	<path class="st1" d="M751.3,135.5h-28.7v26.8h32.2v8H713V96.1H753v8h-30.5v23.5h28.7L751.3,135.5L751.3,135.5z"/>
	<path class="st1" d="M767.1,97.2c5.9-1,12.8-1.6,20.4-1.6c13.7,0,23.5,3.2,30,9.3c6.6,6,10.5,14.6,10.5,26.5
		c0,12.2-3.8,22-10.7,28.8c-7,6.9-18.5,10.7-32.8,10.7c-6.9,0-12.5-0.3-17.4-0.8L767.1,97.2L767.1,97.2z M776.7,162.8
		c2.4,0.4,6,0.4,9.6,0.4c20.5,0.1,31.6-11.4,31.6-31.4c0.1-17.5-9.8-28.6-30-28.6c-5,0-8.7,0.5-11.2,1L776.7,162.8L776.7,162.8z"/>
</g>
<path class="st0" d="M902.3-134"/>
</svg>
